<mxfile host="app.diagrams.net" modified="2024-05-06T18:24:02.928Z" agent="Mozilla/5.0 (Windows NT 10.0; Win64; x64) AppleWebKit/537.36 (KHTML, like Gecko) Chrome/124.0.0.0 Safari/537.36" etag="Oi3OBqgLqi2uP12E9XZQ" version="24.3.1" type="google">
  <diagram name="Page-1" id="vQqop36V-YXDL6jm482O">
    <mxGraphModel grid="1" page="1" gridSize="10" guides="1" tooltips="1" connect="1" arrows="1" fold="1" pageScale="1" pageWidth="1654" pageHeight="2336" math="0" shadow="0">
      <root>
        <mxCell id="0" />
        <mxCell id="1" parent="0" />
        <mxCell id="R-6ukDnG2suBm0UU1ycc-23" value="1" style="text;html=1;align=center;verticalAlign=middle;resizable=0;points=[];autosize=1;strokeColor=none;fillColor=none;" vertex="1" parent="1">
          <mxGeometry x="670" y="380" width="30" height="30" as="geometry" />
        </mxCell>
        <mxCell id="R-6ukDnG2suBm0UU1ycc-24" value="0..*" style="text;html=1;align=center;verticalAlign=middle;resizable=0;points=[];autosize=1;strokeColor=none;fillColor=none;" vertex="1" parent="1">
          <mxGeometry x="570" y="338" width="40" height="30" as="geometry" />
        </mxCell>
        <mxCell id="R-6ukDnG2suBm0UU1ycc-25" value="&lt;span style=&quot;color: rgba(0, 0, 0, 0); font-family: monospace; font-size: 0px; text-align: start;&quot;&gt;%3CmxGraphModel%3E%3Croot%3E%3CmxCell%20id%3D%220%22%2F%3E%3CmxCell%20id%3D%221%22%20parent%3D%220%22%2F%3E%3CmxCell%20id%3D%222%22%20value%3D%22Type%20%26amp%3Blt%3B%26amp%3Blt%3B%2Bget%26amp%3Bgt%3B%26amp%3Bgt%3B%20%26amp%3Blt%3B-set%26amp%3Bgt%3B%26amp%3Bgt%3B%22%20style%3D%22text%3Bhtml%3D1%3Balign%3Dcenter%3BverticalAlign%3Dmiddle%3Bresizable%3D0%3Bpoints%3D%5B%5D%3Bautosize%3D1%3BstrokeColor%3Dnone%3BfillColor%3Dnone%3B%22%20vertex%3D%221%22%20parent%3D%221%22%3E%3CmxGeometry%20x%3D%22280%22%20y%3D%22220%22%20width%3D%22150%22%20height%3D%2230%22%20as%3D%22geometry%22%2F%3E%3C%2FmxCell%3E%3C%2Froot%3E%3C%2FmxGraphModel%3E&lt;/span&gt;" style="text;html=1;align=center;verticalAlign=middle;resizable=0;points=[];autosize=1;strokeColor=none;fillColor=none;" vertex="1" parent="1">
          <mxGeometry x="710" y="178" width="20" height="30" as="geometry" />
        </mxCell>
        <mxCell id="R-6ukDnG2suBm0UU1ycc-31" value="Guest" style="swimlane;whiteSpace=wrap;html=1;" vertex="1" parent="1">
          <mxGeometry x="570" y="6" width="305" height="164" as="geometry" />
        </mxCell>
        <mxCell id="R-6ukDnG2suBm0UU1ycc-41" value="+Name : string &amp;lt;&amp;lt;+get&amp;gt;&amp;gt; &amp;lt;-set&amp;gt;&amp;gt;" style="text;html=1;align=center;verticalAlign=middle;resizable=0;points=[];autosize=1;strokeColor=none;fillColor=none;" vertex="1" parent="R-6ukDnG2suBm0UU1ycc-31">
          <mxGeometry x="-5" y="22" width="200" height="30" as="geometry" />
        </mxCell>
        <mxCell id="R-6ukDnG2suBm0UU1ycc-42" value="+BonusPoints : int&amp;lt;&amp;lt;+get&amp;gt;&amp;gt; &amp;lt;-set&amp;gt;&amp;gt;" style="text;html=1;align=center;verticalAlign=middle;resizable=0;points=[];autosize=1;strokeColor=none;fillColor=none;" vertex="1" parent="R-6ukDnG2suBm0UU1ycc-31">
          <mxGeometry x="-5" y="44" width="220" height="30" as="geometry" />
        </mxCell>
        <mxCell id="R-6ukDnG2suBm0UU1ycc-43" value="+Mode : Mode &amp;lt;&amp;lt;+get&amp;gt;&amp;gt; &amp;lt;-set&amp;gt;&amp;gt;" style="text;html=1;align=center;verticalAlign=middle;resizable=0;points=[];autosize=1;strokeColor=none;fillColor=none;" vertex="1" parent="R-6ukDnG2suBm0UU1ycc-31">
          <mxGeometry x="-5" y="67" width="200" height="30" as="geometry" />
        </mxCell>
        <mxCell id="R-6ukDnG2suBm0UU1ycc-44" value="+SuperGuestConfigured : DateTime &amp;lt;&amp;lt;+get&amp;gt;&amp;gt; &amp;lt;-set&amp;gt;&amp;gt;" style="text;html=1;align=center;verticalAlign=middle;resizable=0;points=[];autosize=1;strokeColor=none;fillColor=none;" vertex="1" parent="R-6ukDnG2suBm0UU1ycc-31">
          <mxGeometry x="-5" y="92" width="310" height="30" as="geometry" />
        </mxCell>
        <mxCell id="R-6ukDnG2suBm0UU1ycc-53" value="+GetGuestMode(guest : Guest):Guest" style="text;html=1;align=center;verticalAlign=middle;resizable=0;points=[];autosize=1;strokeColor=none;fillColor=none;" vertex="1" parent="R-6ukDnG2suBm0UU1ycc-31">
          <mxGeometry x="-10" y="122" width="230" height="30" as="geometry" />
        </mxCell>
        <mxCell id="R-6ukDnG2suBm0UU1ycc-32" style="edgeStyle=orthogonalEdgeStyle;rounded=0;orthogonalLoop=1;jettySize=auto;html=1;exitX=0.5;exitY=1;exitDx=0;exitDy=0;entryX=0.462;entryY=-0.009;entryDx=0;entryDy=0;entryPerimeter=0;" edge="1" parent="1" source="R-6ukDnG2suBm0UU1ycc-31" target="R-6ukDnG2suBm0UU1ycc-19">
          <mxGeometry relative="1" as="geometry" />
        </mxCell>
        <mxCell id="R-6ukDnG2suBm0UU1ycc-33" value="0..*" style="text;html=1;align=center;verticalAlign=middle;resizable=0;points=[];autosize=1;strokeColor=none;fillColor=none;" vertex="1" parent="1">
          <mxGeometry x="840" y="230" width="40" height="30" as="geometry" />
        </mxCell>
        <mxCell id="R-6ukDnG2suBm0UU1ycc-34" value="0..1" style="text;html=1;align=center;verticalAlign=middle;resizable=0;points=[];autosize=1;strokeColor=none;fillColor=none;" vertex="1" parent="1">
          <mxGeometry x="720" y="170" width="40" height="30" as="geometry" />
        </mxCell>
        <mxCell id="R-6ukDnG2suBm0UU1ycc-35" value="AccommodationRating" style="swimlane;whiteSpace=wrap;html=1;" vertex="1" parent="1">
          <mxGeometry x="1120" y="280" width="280" height="180" as="geometry" />
        </mxCell>
        <mxCell id="R-6ukDnG2suBm0UU1ycc-37" value="+OwnerCorrectness : int&amp;lt;&amp;lt;+get&amp;gt;&amp;gt; &amp;lt;-set&amp;gt;&amp;gt;" style="text;html=1;align=center;verticalAlign=middle;resizable=0;points=[];autosize=1;strokeColor=none;fillColor=none;" vertex="1" parent="R-6ukDnG2suBm0UU1ycc-35">
          <mxGeometry y="28" width="250" height="30" as="geometry" />
        </mxCell>
        <mxCell id="R-6ukDnG2suBm0UU1ycc-38" value="+Cleanliness : int &amp;lt;&amp;lt;+get&amp;gt;&amp;gt; &amp;lt;-set&amp;gt;&amp;gt;" style="text;html=1;align=center;verticalAlign=middle;resizable=0;points=[];autosize=1;strokeColor=none;fillColor=none;" vertex="1" parent="R-6ukDnG2suBm0UU1ycc-35">
          <mxGeometry y="58" width="210" height="30" as="geometry" />
        </mxCell>
        <mxCell id="R-6ukDnG2suBm0UU1ycc-39" value="+AdditionalComment : string &amp;lt;&amp;lt;+get&amp;gt;&amp;gt; &amp;lt;-set&amp;gt;&amp;gt;" style="text;html=1;align=center;verticalAlign=middle;resizable=0;points=[];autosize=1;strokeColor=none;fillColor=none;" vertex="1" parent="R-6ukDnG2suBm0UU1ycc-35">
          <mxGeometry y="88" width="270" height="30" as="geometry" />
        </mxCell>
        <mxCell id="R-6ukDnG2suBm0UU1ycc-46" value="RenovateSuggestion" style="swimlane;whiteSpace=wrap;html=1;" vertex="1" parent="1">
          <mxGeometry x="1115" y="490" width="280" height="130" as="geometry" />
        </mxCell>
        <mxCell id="R-6ukDnG2suBm0UU1ycc-47" value="+RenovationLevel : int &amp;lt;&amp;lt;+get&amp;gt;&amp;gt; &amp;lt;-set&amp;gt;&amp;gt;" style="text;html=1;align=center;verticalAlign=middle;resizable=0;points=[];autosize=1;strokeColor=none;fillColor=none;" vertex="1" parent="R-6ukDnG2suBm0UU1ycc-46">
          <mxGeometry y="40" width="240" height="30" as="geometry" />
        </mxCell>
        <mxCell id="R-6ukDnG2suBm0UU1ycc-48" value="0..1" style="text;html=1;align=center;verticalAlign=middle;resizable=0;points=[];autosize=1;strokeColor=none;fillColor=none;" vertex="1" parent="1">
          <mxGeometry x="995" y="380" width="40" height="30" as="geometry" />
        </mxCell>
        <mxCell id="R-6ukDnG2suBm0UU1ycc-49" value="1" style="text;html=1;align=center;verticalAlign=middle;resizable=0;points=[];autosize=1;strokeColor=none;fillColor=none;" vertex="1" parent="1">
          <mxGeometry x="1085" y="368" width="30" height="30" as="geometry" />
        </mxCell>
        <mxCell id="R-6ukDnG2suBm0UU1ycc-50" value="0..1" style="text;html=1;align=center;verticalAlign=middle;resizable=0;points=[];autosize=1;strokeColor=none;fillColor=none;" vertex="1" parent="1">
          <mxGeometry x="995" y="460" width="40" height="30" as="geometry" />
        </mxCell>
        <mxCell id="R-6ukDnG2suBm0UU1ycc-51" value="1" style="text;html=1;align=center;verticalAlign=middle;resizable=0;points=[];autosize=1;strokeColor=none;fillColor=none;" vertex="1" parent="1">
          <mxGeometry x="1085" y="550" width="30" height="30" as="geometry" />
        </mxCell>
        <mxCell id="R-6ukDnG2suBm0UU1ycc-52" value="" style="endArrow=none;html=1;rounded=0;entryX=1;entryY=0.75;entryDx=0;entryDy=0;exitX=0;exitY=0.75;exitDx=0;exitDy=0;" edge="1" parent="1" source="R-6ukDnG2suBm0UU1ycc-31" target="R-6ukDnG2suBm0UU1ycc-31">
          <mxGeometry width="50" height="50" relative="1" as="geometry">
            <mxPoint x="600" y="380" as="sourcePoint" />
            <mxPoint x="650" y="330" as="targetPoint" />
          </mxGeometry>
        </mxCell>
        <mxCell id="R-6ukDnG2suBm0UU1ycc-54" value="" style="edgeStyle=orthogonalEdgeStyle;rounded=0;orthogonalLoop=1;jettySize=auto;html=1;exitX=0;exitY=0.5;exitDx=0;exitDy=0;" edge="1" parent="1" source="R-6ukDnG2suBm0UU1ycc-19" target="R-6ukDnG2suBm0UU1ycc-5">
          <mxGeometry relative="1" as="geometry">
            <mxPoint x="700" y="415" as="sourcePoint" />
            <mxPoint x="510" y="460" as="targetPoint" />
          </mxGeometry>
        </mxCell>
        <mxCell id="R-6ukDnG2suBm0UU1ycc-5" value="Accommodation" style="swimlane;whiteSpace=wrap;html=1;" vertex="1" parent="1">
          <mxGeometry x="270" y="270" width="300" height="210" as="geometry">
            <mxRectangle x="280" y="150" width="140" height="30" as="alternateBounds" />
          </mxGeometry>
        </mxCell>
        <mxCell id="R-6ukDnG2suBm0UU1ycc-13" value="+Name : string &amp;lt;&amp;lt;+get&amp;gt;&amp;gt; &amp;lt;-set&amp;gt;&amp;gt;" style="text;html=1;align=center;verticalAlign=middle;resizable=0;points=[];autosize=1;strokeColor=none;fillColor=none;" vertex="1" parent="R-6ukDnG2suBm0UU1ycc-5">
          <mxGeometry x="-5" y="28" width="200" height="30" as="geometry" />
        </mxCell>
        <mxCell id="R-6ukDnG2suBm0UU1ycc-14" value="+LocationId : int &amp;lt;&amp;lt;+get&amp;gt;&amp;gt; &amp;lt;-set&amp;gt;&amp;gt;" style="text;html=1;align=center;verticalAlign=middle;resizable=0;points=[];autosize=1;strokeColor=none;fillColor=none;" vertex="1" parent="R-6ukDnG2suBm0UU1ycc-5">
          <mxGeometry x="-5" y="50" width="210" height="30" as="geometry" />
        </mxCell>
        <mxCell id="R-6ukDnG2suBm0UU1ycc-15" value="+Type : Type &amp;lt;&amp;lt;+get&amp;gt;&amp;gt; &amp;lt;-set&amp;gt;&amp;gt;" style="text;html=1;align=center;verticalAlign=middle;resizable=0;points=[];autosize=1;strokeColor=none;fillColor=none;" vertex="1" parent="R-6ukDnG2suBm0UU1ycc-5">
          <mxGeometry x="-5" y="70" width="190" height="30" as="geometry" />
        </mxCell>
        <mxCell id="R-6ukDnG2suBm0UU1ycc-16" value="+MaxGuest : int &amp;lt;&amp;lt;+get&amp;gt;&amp;gt; &amp;lt;-set&amp;gt;&amp;gt;" style="text;html=1;align=center;verticalAlign=middle;resizable=0;points=[];autosize=1;strokeColor=none;fillColor=none;" vertex="1" parent="R-6ukDnG2suBm0UU1ycc-5">
          <mxGeometry x="-5" y="90" width="210" height="30" as="geometry" />
        </mxCell>
        <mxCell id="R-6ukDnG2suBm0UU1ycc-17" value="+MinStayDays : int &amp;lt;&amp;lt;+get&amp;gt;&amp;gt; &amp;lt;&amp;lt;-set&amp;gt;&amp;gt;" style="text;html=1;align=center;verticalAlign=middle;resizable=0;points=[];autosize=1;strokeColor=none;fillColor=none;" vertex="1" parent="R-6ukDnG2suBm0UU1ycc-5">
          <mxGeometry x="-5" y="110" width="230" height="30" as="geometry" />
        </mxCell>
        <mxCell id="R-6ukDnG2suBm0UU1ycc-18" value="+CancellationDays : int &amp;lt;&amp;lt;+get&amp;gt;&amp;gt; &amp;lt;-set&amp;gt;&amp;gt;" style="text;html=1;align=center;verticalAlign=middle;resizable=0;points=[];autosize=1;strokeColor=none;fillColor=none;" vertex="1" parent="R-6ukDnG2suBm0UU1ycc-5">
          <mxGeometry x="-5" y="130" width="250" height="30" as="geometry" />
        </mxCell>
        <mxCell id="R-6ukDnG2suBm0UU1ycc-7" value="" style="endArrow=none;html=1;rounded=0;" edge="1" parent="R-6ukDnG2suBm0UU1ycc-5">
          <mxGeometry width="50" height="50" relative="1" as="geometry">
            <mxPoint y="170" as="sourcePoint" />
            <mxPoint x="250" y="170" as="targetPoint" />
          </mxGeometry>
        </mxCell>
        <mxCell id="6FFO4Y1X4_x4pmReIVaN-2" value="+ IsSearched(accommodation : Accommodation):bool" style="text;html=1;align=center;verticalAlign=middle;resizable=0;points=[];autosize=1;strokeColor=none;fillColor=none;" vertex="1" parent="R-6ukDnG2suBm0UU1ycc-5">
          <mxGeometry x="-10" y="178" width="310" height="30" as="geometry" />
        </mxCell>
        <mxCell id="R-6ukDnG2suBm0UU1ycc-57" value="" style="edgeStyle=orthogonalEdgeStyle;rounded=0;orthogonalLoop=1;jettySize=auto;html=1;exitX=0;exitY=0.5;exitDx=0;exitDy=0;" edge="1" parent="1" source="R-6ukDnG2suBm0UU1ycc-35" target="R-6ukDnG2suBm0UU1ycc-19">
          <mxGeometry relative="1" as="geometry">
            <mxPoint x="900" y="450" as="targetPoint" />
            <mxPoint x="1120" y="415" as="sourcePoint" />
          </mxGeometry>
        </mxCell>
        <mxCell id="6FFO4Y1X4_x4pmReIVaN-10" style="edgeStyle=orthogonalEdgeStyle;rounded=0;orthogonalLoop=1;jettySize=auto;html=1;exitX=1;exitY=0.75;exitDx=0;exitDy=0;entryX=0;entryY=0.75;entryDx=0;entryDy=0;" edge="1" parent="1" source="R-6ukDnG2suBm0UU1ycc-19" target="R-6ukDnG2suBm0UU1ycc-46">
          <mxGeometry relative="1" as="geometry" />
        </mxCell>
        <mxCell id="R-6ukDnG2suBm0UU1ycc-19" value="AccommodationReservation" style="swimlane;whiteSpace=wrap;html=1;" vertex="1" parent="1">
          <mxGeometry x="707" y="270" width="292.5" height="290" as="geometry" />
        </mxCell>
        <mxCell id="R-6ukDnG2suBm0UU1ycc-26" value="+FirstDay : DateTime &amp;lt;&amp;lt;+get&amp;gt;&amp;gt; &amp;lt;-set&amp;gt;&amp;gt;" style="text;html=1;align=center;verticalAlign=middle;resizable=0;points=[];autosize=1;strokeColor=none;fillColor=none;" vertex="1" parent="R-6ukDnG2suBm0UU1ycc-19">
          <mxGeometry x="-7.5" y="28" width="240" height="30" as="geometry" />
        </mxCell>
        <mxCell id="R-6ukDnG2suBm0UU1ycc-27" value="+LastDay : DateTime&amp;lt;&amp;lt;+get&amp;gt;&amp;gt; &amp;lt;-set&amp;gt;&amp;gt;" style="text;html=1;align=center;verticalAlign=middle;resizable=0;points=[];autosize=1;strokeColor=none;fillColor=none;" vertex="1" parent="R-6ukDnG2suBm0UU1ycc-19">
          <mxGeometry x="-5" y="50" width="230" height="30" as="geometry" />
        </mxCell>
        <mxCell id="R-6ukDnG2suBm0UU1ycc-28" value="+DaysToStay : int &amp;lt;&amp;lt;+get&amp;gt;&amp;gt; &amp;lt;-set&amp;gt;&amp;gt;" style="text;html=1;align=center;verticalAlign=middle;resizable=0;points=[];autosize=1;strokeColor=none;fillColor=none;" vertex="1" parent="R-6ukDnG2suBm0UU1ycc-19">
          <mxGeometry x="-5" y="70" width="220" height="30" as="geometry" />
        </mxCell>
        <mxCell id="R-6ukDnG2suBm0UU1ycc-29" value="+GuestNumber : int &amp;lt;&amp;lt;+get&amp;gt;&amp;gt; &amp;lt;-set&amp;gt;&amp;gt;" style="text;html=1;align=center;verticalAlign=middle;resizable=0;points=[];autosize=1;strokeColor=none;fillColor=none;" vertex="1" parent="R-6ukDnG2suBm0UU1ycc-19">
          <mxGeometry x="-5" y="90" width="230" height="30" as="geometry" />
        </mxCell>
        <mxCell id="R-6ukDnG2suBm0UU1ycc-30" value="+Status : ReservationStatus &amp;lt;&amp;lt;+get&amp;gt;&amp;gt; &amp;lt;-set&amp;gt;&amp;gt;" style="text;html=1;align=center;verticalAlign=middle;resizable=0;points=[];autosize=1;strokeColor=none;fillColor=none;" vertex="1" parent="R-6ukDnG2suBm0UU1ycc-19">
          <mxGeometry x="-7.5" y="110" width="270" height="30" as="geometry" />
        </mxCell>
        <mxCell id="R-6ukDnG2suBm0UU1ycc-71" value="+IsRateable():bool" style="text;html=1;align=center;verticalAlign=middle;resizable=0;points=[];autosize=1;strokeColor=none;fillColor=none;" vertex="1" parent="R-6ukDnG2suBm0UU1ycc-19">
          <mxGeometry x="-5" y="168" width="120" height="30" as="geometry" />
        </mxCell>
        <mxCell id="R-6ukDnG2suBm0UU1ycc-72" value="+IsCancelable():bool" style="text;html=1;align=center;verticalAlign=middle;resizable=0;points=[];autosize=1;strokeColor=none;fillColor=none;" vertex="1" parent="R-6ukDnG2suBm0UU1ycc-19">
          <mxGeometry x="-5" y="198" width="130" height="30" as="geometry" />
        </mxCell>
        <mxCell id="6FFO4Y1X4_x4pmReIVaN-1" value="+ IsOverlap(begin :DateTIme , end: DateTime):bool" style="text;html=1;align=center;verticalAlign=middle;resizable=0;points=[];autosize=1;strokeColor=none;fillColor=none;" vertex="1" parent="R-6ukDnG2suBm0UU1ycc-19">
          <mxGeometry x="-7.5" y="228" width="300" height="30" as="geometry" />
        </mxCell>
        <mxCell id="R-6ukDnG2suBm0UU1ycc-58" value="&lt;div&gt;&amp;lt;enum&amp;gt;&lt;/div&gt;Type" style="swimlane;whiteSpace=wrap;html=1;" vertex="1" parent="1">
          <mxGeometry x="20" y="290" width="200" height="140" as="geometry" />
        </mxCell>
        <mxCell id="R-6ukDnG2suBm0UU1ycc-59" value="HOUSE" style="text;html=1;align=center;verticalAlign=middle;resizable=0;points=[];autosize=1;strokeColor=none;fillColor=none;" vertex="1" parent="R-6ukDnG2suBm0UU1ycc-58">
          <mxGeometry y="40" width="70" height="30" as="geometry" />
        </mxCell>
        <mxCell id="R-6ukDnG2suBm0UU1ycc-60" value="CABIN&lt;span style=&quot;color: rgba(0, 0, 0, 0); font-family: monospace; font-size: 0px; text-align: start;&quot;&gt;%3CmxGraphModel%3E%3Croot%3E%3CmxCell%20id%3D%220%22%2F%3E%3CmxCell%20id%3D%221%22%20parent%3D%220%22%2F%3E%3CmxCell%20id%3D%222%22%20value%3D%22HOUSE%22%20style%3D%22text%3Bhtml%3D1%3Balign%3Dcenter%3BverticalAlign%3Dmiddle%3Bresizable%3D0%3Bpoints%3D%5B%5D%3Bautosize%3D1%3BstrokeColor%3Dnone%3BfillColor%3Dnone%3B%22%20vertex%3D%221%22%20parent%3D%221%22%3E%3CmxGeometry%20x%3D%2220%22%20y%3D%22330%22%20width%3D%2270%22%20height%3D%2230%22%20as%3D%22geometry%22%2F%3E%3C%2FmxCell%3E%3C%2Froot%3E%3C%2FmxGraphModel%3E&lt;/span&gt;&lt;span style=&quot;color: rgba(0, 0, 0, 0); font-family: monospace; font-size: 0px; text-align: start;&quot;&gt;%3CmxGraphModel%3E%3Croot%3E%3CmxCell%20id%3D%220%22%2F%3E%3CmxCell%20id%3D%221%22%20parent%3D%220%22%2F%3E%3CmxCell%20id%3D%222%22%20value%3D%22HOUSE%22%20style%3D%22text%3Bhtml%3D1%3Balign%3Dcenter%3BverticalAlign%3Dmiddle%3Bresizable%3D0%3Bpoints%3D%5B%5D%3Bautosize%3D1%3BstrokeColor%3Dnone%3BfillColor%3Dnone%3B%22%20vertex%3D%221%22%20parent%3D%221%22%3E%3CmxGeometry%20x%3D%2220%22%20y%3D%22330%22%20width%3D%2270%22%20height%3D%2230%22%20as%3D%22geometry%22%2F%3E%3C%2FmxCell%3E%3C%2Froot%3E%3C%2FmxGraphModel%3E&lt;/span&gt;&lt;span style=&quot;color: rgba(0, 0, 0, 0); font-family: monospace; font-size: 0px; text-align: start;&quot;&gt;%3CmxGraphModel%3E%3Croot%3E%3CmxCell%20id%3D%220%22%2F%3E%3CmxCell%20id%3D%221%22%20parent%3D%220%22%2F%3E%3CmxCell%20id%3D%222%22%20value%3D%22HOUSE%22%20style%3D%22text%3Bhtml%3D1%3Balign%3Dcenter%3BverticalAlign%3Dmiddle%3Bresizable%3D0%3Bpoints%3D%5B%5D%3Bautosize%3D1%3BstrokeColor%3Dnone%3BfillColor%3Dnone%3B%22%20vertex%3D%221%22%20parent%3D%221%22%3E%3CmxGeometry%20x%3D%2220%22%20y%3D%22330%22%20width%3D%2270%22%20height%3D%2230%22%20as%3D%22geometry%22%2F%3E%3C%2FmxCell%3E%3C%2Froot%3E%3C%2FmxGraphModel%3E&lt;/span&gt;" style="text;html=1;align=center;verticalAlign=middle;resizable=0;points=[];autosize=1;strokeColor=none;fillColor=none;" vertex="1" parent="R-6ukDnG2suBm0UU1ycc-58">
          <mxGeometry y="70" width="60" height="30" as="geometry" />
        </mxCell>
        <mxCell id="R-6ukDnG2suBm0UU1ycc-61" value="APARTMENT" style="text;html=1;align=center;verticalAlign=middle;resizable=0;points=[];autosize=1;strokeColor=none;fillColor=none;" vertex="1" parent="R-6ukDnG2suBm0UU1ycc-58">
          <mxGeometry x="-5" y="100" width="100" height="30" as="geometry" />
        </mxCell>
        <mxCell id="R-6ukDnG2suBm0UU1ycc-62" value="&lt;div&gt;&amp;lt;&amp;lt;enum&amp;gt;&amp;gt;&lt;/div&gt;ReservationStatus" style="swimlane;whiteSpace=wrap;html=1;" vertex="1" parent="1">
          <mxGeometry x="915" y="160" width="200" height="90" as="geometry" />
        </mxCell>
        <mxCell id="R-6ukDnG2suBm0UU1ycc-64" value="CANCELED" style="text;html=1;align=center;verticalAlign=middle;resizable=0;points=[];autosize=1;strokeColor=none;fillColor=none;" vertex="1" parent="R-6ukDnG2suBm0UU1ycc-62">
          <mxGeometry x="-10" y="48" width="90" height="30" as="geometry" />
        </mxCell>
        <mxCell id="R-6ukDnG2suBm0UU1ycc-63" value="ACTIVE" style="text;html=1;align=center;verticalAlign=middle;resizable=0;points=[];autosize=1;strokeColor=none;fillColor=none;" vertex="1" parent="R-6ukDnG2suBm0UU1ycc-62">
          <mxGeometry x="-10" y="22" width="70" height="30" as="geometry" />
        </mxCell>
        <mxCell id="R-6ukDnG2suBm0UU1ycc-65" value="&lt;div&gt;&amp;lt;&amp;lt;enun&amp;gt;&amp;gt;&lt;/div&gt;Mode" style="swimlane;whiteSpace=wrap;html=1;" vertex="1" parent="1">
          <mxGeometry x="910" y="20" width="200" height="114" as="geometry" />
        </mxCell>
        <mxCell id="R-6ukDnG2suBm0UU1ycc-68" value="SUPERGUEST" style="text;html=1;align=center;verticalAlign=middle;resizable=0;points=[];autosize=1;strokeColor=none;fillColor=none;" vertex="1" parent="R-6ukDnG2suBm0UU1ycc-65">
          <mxGeometry y="52" width="110" height="30" as="geometry" />
        </mxCell>
        <mxCell id="R-6ukDnG2suBm0UU1ycc-66" value="GUEST" style="text;html=1;align=center;verticalAlign=middle;resizable=0;points=[];autosize=1;strokeColor=none;fillColor=none;" vertex="1" parent="R-6ukDnG2suBm0UU1ycc-65">
          <mxGeometry x="10" y="30" width="60" height="30" as="geometry" />
        </mxCell>
        <mxCell id="R-6ukDnG2suBm0UU1ycc-70" value="" style="endArrow=none;html=1;rounded=0;" edge="1" parent="1">
          <mxGeometry width="50" height="50" relative="1" as="geometry">
            <mxPoint x="710" y="430" as="sourcePoint" />
            <mxPoint x="960" y="430" as="targetPoint" />
          </mxGeometry>
        </mxCell>
        <mxCell id="R-6ukDnG2suBm0UU1ycc-74" value="User" style="swimlane;whiteSpace=wrap;html=1;" vertex="1" parent="1">
          <mxGeometry x="70" y="31" width="300" height="92" as="geometry" />
        </mxCell>
        <mxCell id="R-6ukDnG2suBm0UU1ycc-75" value="+ Username : string &amp;lt;&amp;lt;+get&amp;gt;&amp;gt; &amp;lt;&amp;lt;-set&amp;gt;&amp;gt;" style="text;html=1;align=center;verticalAlign=middle;resizable=0;points=[];autosize=1;strokeColor=none;fillColor=none;" vertex="1" parent="R-6ukDnG2suBm0UU1ycc-74">
          <mxGeometry y="20" width="230" height="30" as="geometry" />
        </mxCell>
        <mxCell id="R-6ukDnG2suBm0UU1ycc-77" value="&lt;span style=&quot;color: rgb(0, 0, 0); font-family: Helvetica; font-size: 12px; font-style: normal; font-variant-ligatures: normal; font-variant-caps: normal; font-weight: 400; letter-spacing: normal; orphans: 2; text-align: center; text-indent: 0px; text-transform: none; widows: 2; word-spacing: 0px; -webkit-text-stroke-width: 0px; white-space: nowrap; background-color: rgb(251, 251, 251); text-decoration-thickness: initial; text-decoration-style: initial; text-decoration-color: initial; display: inline !important; float: none;&quot;&gt;+ Password : string &amp;lt;&amp;lt;+get&amp;gt;&amp;gt; &amp;lt;&amp;lt;-set&amp;gt;&amp;gt;&lt;/span&gt;" style="text;whiteSpace=wrap;html=1;" vertex="1" parent="R-6ukDnG2suBm0UU1ycc-74">
          <mxGeometry x="10" y="50" width="240" height="40" as="geometry" />
        </mxCell>
        <mxCell id="6FFO4Y1X4_x4pmReIVaN-9" value="" style="endArrow=classic;html=1;rounded=0;exitX=1;exitY=0.5;exitDx=0;exitDy=0;" edge="1" parent="1" source="R-6ukDnG2suBm0UU1ycc-74" target="R-6ukDnG2suBm0UU1ycc-43">
          <mxGeometry width="50" height="50" relative="1" as="geometry">
            <mxPoint x="440" y="120" as="sourcePoint" />
            <mxPoint x="490" y="70" as="targetPoint" />
          </mxGeometry>
        </mxCell>
      </root>
    </mxGraphModel>
  </diagram>
</mxfile>
